# xmcd
#
# Track frame offsets: 
#        180
#        25081
#        50820
#        74808
#        93381
#        108650
#        123761
#        142216
#        160640
#        176781
#        203412
#        230150
#
# Disc length: 3483 seconds
#
# Revision: 0
# Processed by: cddbd v1.5.2PL0 Copyright (c) Steve Scherf et al.
# Submitted via: ExactAudioCopy v1.0b3
#
DISCID=b00d990c
DTITLE=Dance History Vol 3 - Pure House Techno
DYEAR=1998
DGENRE=Euro-House
TTITLE0=Off Beat - Vibration
TTITLE1=Capricorn - 20 HZ
TTITLE2=Kadoc - The Night Train
TTITLE3=Stalina Salomon - Red Sum
TTITLE4=Dj T.V. and Azidman - In Terrain
TTITLE5=Paul Droid - Ring Of Saturn
TTITLE6=By Dsigual Vol 3 - Black Order
TTITLE7=By L.M. and L.M. - Family
TTITLE8=By Marbher Dj and Hipolito V. - Welcome To The Circus
TTITLE9=The Goodmen - Give It Up
TTITLE10=Dj Visage - Formula
TTITLE11=Striking Man - My House(It Not Even Music)
EXTD=
EXTT0=
EXTT1=
EXTT2=
EXTT3=
EXTT4=
EXTT5=
EXTT6=
EXTT7=
EXTT8=
EXTT9=
EXTT10=
EXTT11=
PLAYORDER=
